<svg width="62" height="61" viewBox="0 0 62 61" fill="none" xmlns="http://www.w3.org/2000/svg">
<rect x="0.375" width="60.75" height="60.75" rx="30.375" fill="black" fill-opacity="0.31"/>
<path d="M35.3812 30.375C35.3812 31.6033 34.8933 32.7813 34.0248 33.6498C33.1563 34.5183 31.9783 35.0062 30.75 35.0062C29.5217 35.0062 28.3437 34.5183 27.4752 33.6498C26.6067 32.7813 26.1187 31.6033 26.1187 30.375C26.1187 29.1467 26.6067 27.9687 27.4752 27.1002C28.3437 26.2317 29.5217 25.7437 30.75 25.7437C31.9783 25.7437 33.1563 26.2317 34.0248 27.1002C34.8933 27.9687 35.3812 29.1467 35.3812 30.375ZM45.2227 24.007V36.743C45.2203 38.8917 44.3657 40.9518 42.8462 42.4712C41.3268 43.9907 39.2667 44.8453 37.118 44.8477H24.382C22.2333 44.8453 20.1732 43.9907 18.6538 42.4712C17.1343 40.9518 16.2797 38.8917 16.2773 36.743V24.007C16.2797 21.8583 17.1343 19.7982 18.6538 18.2788C20.1732 16.7593 22.2333 15.9047 24.382 15.9023H37.118C39.2667 15.9047 41.3268 16.7593 42.8462 18.2788C44.3657 19.7982 45.2203 21.8583 45.2227 24.007ZM37.6969 30.375C37.6969 28.5326 36.965 26.7656 35.6622 25.4628C34.3594 24.16 32.5924 23.4281 30.75 23.4281C28.9076 23.4281 27.1406 24.16 25.8378 25.4628C24.535 26.7656 23.8031 28.5326 23.8031 30.375C23.8031 32.2174 24.535 33.9844 25.8378 35.2872C27.1406 36.59 28.9076 37.3219 30.75 37.3219C32.5924 37.3219 34.3594 36.59 35.6622 35.2872C36.965 33.9844 37.6969 32.2174 37.6969 30.375ZM40.0125 22.8492C40.0125 22.6211 39.9676 22.3953 39.8803 22.1846C39.793 21.9739 39.6651 21.7824 39.5038 21.6212C39.3426 21.4599 39.1511 21.332 38.9404 21.2447C38.7297 21.1574 38.5038 21.1125 38.2758 21.1125C38.0477 21.1125 37.8219 21.1574 37.6112 21.2447C37.4005 21.332 37.209 21.4599 37.0477 21.6212C36.8865 21.7824 36.7585 21.9739 36.6713 22.1846C36.584 22.3953 36.5391 22.6211 36.5391 22.8492C36.5391 23.3098 36.722 23.7516 37.0477 24.0773C37.3734 24.403 37.8152 24.5859 38.2758 24.5859C38.7364 24.5859 39.1781 24.403 39.5038 24.0773C39.8295 23.7516 40.0125 23.3098 40.0125 22.8492Z" fill="white"/>
</svg>
