<svg width="77" height="77" viewBox="0 0 77 77" fill="none" xmlns="http://www.w3.org/2000/svg">
<g clip-path="url(#clip0_92_262)">
<path d="M1.78 21.67H6.37V24.73H1.78V46.15H6.37V49.21H1.78V70.63H6.37V76.75H70.63V70.63H75.22V49.21H70.63V46.15H75.22V24.73H70.63V21.67H75.22V0.25H1.78V21.67ZM67.57 73.69H9.43V70.63H67.57V73.69ZM72.16 52.27V67.57H4.84V52.27H72.16ZM67.57 49.21H9.43V46.15H67.57V49.21ZM72.16 27.79V43.09H4.84V27.79H72.16ZM67.57 24.73H9.43V21.67H67.57V24.73ZM4.84 3.31H72.16V18.61H4.84V3.31Z" fill="black"/>
<path d="M9.42999 7.89999H12.49V14.02H9.42999V7.89999ZM17.08 7.89999H20.14V14.02H17.08V7.89999ZM24.73 7.89999H27.79V14.02H24.73V7.89999ZM32.38 7.89999H35.44V14.02H32.38V7.89999ZM64.51 9.42999H67.57V12.49H64.51V9.42999ZM40.03 9.42999H59.92V12.49H40.03V9.42999ZM9.42999 32.38H12.49V38.5H9.42999V32.38ZM17.08 32.38H20.14V38.5H17.08V32.38ZM24.73 32.38H27.79V38.5H24.73V32.38ZM32.38 32.38H35.44V38.5H32.38V32.38ZM64.51 33.91H67.57V36.97H64.51V33.91ZM40.03 33.91H59.92V36.97H40.03V33.91ZM9.42999 56.86H12.49V62.98H9.42999V56.86ZM17.08 56.86H20.14V62.98H17.08V56.86ZM24.73 56.86H27.79V62.98H24.73V56.86ZM32.38 56.86H35.44V62.98H32.38V56.86ZM64.51 58.39H67.57V61.45H64.51V58.39ZM40.03 58.39H59.92V61.45H40.03V58.39Z" fill="black"/>
</g>
<defs>
<clipPath id="clip0_92_262">
<rect width="76.5" height="76.5" fill="white" transform="translate(0.25 0.25)"/>
</clipPath>
</defs>
</svg>
