<svg width="61" height="61" viewBox="0 0 61 61" fill="none" xmlns="http://www.w3.org/2000/svg">
<rect x="0.125" width="60.75" height="60.75" rx="30.375" fill="black" fill-opacity="0.31"/>
<path d="M30.5048 11.0598H30.4952C19.8453 11.0598 11.1849 19.7226 11.1849 30.3749C11.1783 34.4432 12.4661 38.4081 14.862 41.696L12.4549 48.8715L19.8791 46.4982C23.0284 48.5875 26.7255 49.6981 30.5048 49.69C41.1547 49.69 49.8151 41.0248 49.8151 30.3749C49.8151 19.725 41.1547 11.0598 30.5048 11.0598ZM41.7438 38.3351C41.2778 39.651 39.4284 40.7423 37.9532 41.061C36.944 41.2759 35.6257 41.4473 31.1881 39.6075C25.5119 37.2559 21.8565 31.4879 21.5716 31.1137C21.2988 30.7395 19.2779 28.0595 19.2779 25.2878C19.2779 22.5161 20.6855 21.1664 21.2529 20.587C21.7189 20.1114 22.4891 19.8941 23.2279 19.8941C23.4669 19.8941 23.6818 19.9061 23.8749 19.9158C24.4423 19.9399 24.7272 19.9737 25.1014 20.8695C25.5674 21.9922 26.7022 24.7639 26.8374 25.0488C26.975 25.3337 27.1126 25.72 26.9195 26.0942C26.7384 26.4805 26.579 26.6519 26.2941 26.9803C26.0092 27.3086 25.7388 27.5597 25.4539 27.9122C25.1932 28.2189 24.8986 28.5472 25.227 29.1146C25.5553 29.6699 26.6901 31.5217 28.3608 33.009C30.5169 34.9284 32.2649 35.5417 32.8902 35.8024C33.3562 35.9956 33.9115 35.9497 34.2519 35.5876C34.6841 35.1216 35.2177 34.349 35.7609 33.5885C36.1472 33.0428 36.6349 32.9752 37.1468 33.1684C37.6683 33.3494 40.4279 34.7136 40.9953 34.996C41.5627 35.2809 41.9369 35.4161 42.0746 35.6552C42.2098 35.8942 42.2098 37.0169 41.7438 38.3351Z" fill="white"/>
</svg>
