<svg width="80" height="80" viewBox="0 0 80 80" fill="none" xmlns="http://www.w3.org/2000/svg">
<path d="M27.6775 40.0002L8.59753 21.3177C7.80253 20.5227 7.80253 19.3302 8.59753 18.5352L18.1375 8.99524C18.9325 8.20024 20.125 8.20024 20.92 8.99524L39.6025 27.6777" stroke="black" stroke-width="3.975" stroke-miterlimit="10"/>
<path d="M51.925 40L71.005 59.08C71.8 59.875 71.8 61.0675 71.005 61.8625L61.465 71.4025C60.67 72.1975 59.4775 72.1975 58.6825 71.4025L40 52.3225" stroke="black" stroke-width="3.975" stroke-miterlimit="10"/>
<path d="M56.1281 68.8688L52.1931 64.9337L60.3444 56.7826L64.2794 60.7177L56.1281 68.8688Z" fill="black"/>
<path d="M47.9505 60.5189L44.0155 56.5837L48.2317 52.3677L52.1667 56.3028L47.9505 60.5189Z" fill="black"/>
<path d="M23.6087 35.894L19.6738 31.9589L27.8251 23.8078L31.76 27.743L23.6087 35.894Z" fill="black"/>
<path d="M15.4282 28.1133L11.4932 24.1782L15.7094 19.9622L19.6444 23.8973L15.4282 28.1133Z" fill="black"/>
<path d="M55.9 11.7775L58.285 9.39251C59.875 7.80251 62.26 7.80251 63.85 9.39251L70.6075 16.15C72.1975 17.74 72.1975 20.125 70.6075 21.715L68.2225 24.1" stroke="black" stroke-width="3.975" stroke-miterlimit="10" stroke-linecap="round" stroke-linejoin="round"/>
<path d="M52.7873 15.3023L64.8733 27.3887L26.9275 65.3332L14.8415 53.2468L52.7873 15.3023Z" stroke="black" stroke-width="3.975" stroke-miterlimit="10" stroke-linecap="round" stroke-linejoin="round"/>
<path d="M17.8177 58.0559L56.6054 19.2669L60.5405 23.2019L21.7528 61.9909L17.8177 58.0559Z" fill="black"/>
<path d="M8.59741 71.4027L14.5599 53.1177L26.8824 65.4402L8.59741 71.4027Z" stroke="black" stroke-width="3.975" stroke-miterlimit="10" stroke-linecap="round" stroke-linejoin="round"/>
<path d="M10.5849 65.4401L8.59741 71.4026L14.5599 69.4151L10.5849 65.4401Z" fill="black"/>
<path d="M69.0174 23.3048L64.2474 27.6773L52.3224 15.7523L56.6949 10.9823" stroke="black" stroke-width="3.975" stroke-miterlimit="10" stroke-linecap="round" stroke-linejoin="round"/>
</svg>
