<svg width="81" height="89" viewBox="0 0 81 89" fill="none" xmlns="http://www.w3.org/2000/svg">
<path d="M29.7679 79.337L29.3212 86.7556C29.284 87.3699 29.7215 87.9112 30.3301 88.0029C32.5094 88.3328 34.74 88.5 36.9583 88.5C39.1741 88.5 41.404 88.3328 43.5857 88.0029C44.1944 87.9112 44.6325 87.3699 44.5953 86.756L44.2129 80.386C48.873 79.4518 53.2334 77.6444 57.203 75.0008L61.4349 79.7755C61.843 80.2349 62.5351 80.3093 63.0299 79.9439C66.6099 77.3072 69.7635 74.1534 72.4035 70.5704C72.7689 70.0752 72.6962 69.3834 72.2354 68.975L67.4623 64.7441C70.1055 60.7754 71.9133 56.4146 72.8478 51.7525L79.2159 52.1358C79.823 52.1732 80.3702 51.7355 80.4632 51.1265C80.7922 48.9485 80.9594 46.7188 80.9594 44.4987C80.9594 42.2789 80.7922 40.0492 80.4632 37.8708C80.3711 37.2619 79.8307 36.8143 79.2159 36.8616L72.8462 37.2449C71.9117 32.5843 70.1047 28.2232 67.4614 24.2544L72.2354 20.0225C72.6953 19.6141 72.7689 18.9223 72.4042 18.4271C69.7671 14.8475 66.6137 11.6941 63.0306 9.05361C62.5351 8.68855 61.843 8.76245 61.4356 9.22205L57.2022 13.9971C53.2087 11.3442 48.6787 9.4833 43.9854 8.56738L44.4979 2.25321C44.5482 1.62913 44.1069 1.07294 43.4874 0.98082C39.1811 0.339727 34.7356 0.339727 30.4292 0.98082C29.8098 1.07294 29.3686 1.6293 29.4188 2.25321L30.0197 9.644C30.0723 10.299 30.653 10.7868 31.301 10.733C31.956 10.6795 32.4438 10.1058 32.3903 9.45133L31.8809 3.18426C35.2457 2.77468 38.671 2.77468 42.0358 3.18426L41.527 9.45081C41.4767 10.0682 41.9095 10.6211 42.5203 10.721C47.593 11.5494 52.4993 13.5624 56.7089 16.542C57.2044 16.8928 57.8842 16.8134 58.2852 16.3605L62.4846 11.6233C65.233 13.7607 67.6991 16.2266 69.8343 18.9728L65.0976 23.1719C64.6438 23.5745 64.5656 24.2539 64.9156 24.749C67.8887 28.9497 69.8334 33.6419 70.6961 38.6953C70.799 39.2934 71.3403 39.7188 71.9394 39.682L78.2594 39.3019C78.4731 41.0184 78.5807 42.7619 78.5807 44.4988C78.5807 46.2362 78.4731 47.9795 78.2594 49.6958L71.9417 49.3156C71.3423 49.2754 70.8004 49.7048 70.6983 50.3024C69.835 55.3574 67.8894 60.0499 64.9163 64.2498C64.5663 64.745 64.6445 65.4243 65.0983 65.827L69.8334 70.0248C67.6965 72.7738 65.2306 75.2393 62.4844 77.3742L58.285 72.637C57.884 72.1832 57.2042 72.1043 56.7087 72.455C52.5069 75.4284 47.8151 77.3733 42.7618 78.2361C42.164 78.3384 41.7389 78.8742 41.7754 79.4795L42.1547 85.7992C38.7148 86.2276 35.1936 86.2276 31.7614 85.7992L32.1416 79.4798C32.1812 78.8241 31.6817 78.2607 31.026 78.2214C30.3734 78.1861 29.8074 78.6816 29.7679 79.337ZM4.23998 27.8746C2.33458 27.8746 0.783752 29.4251 0.783752 31.3308C0.783752 33.2366 2.33458 34.7871 4.23998 34.7871C4.67775 34.7871 5.09335 34.6968 5.4792 34.5476L8.71286 37.8964C8.93732 38.1283 9.2455 38.2596 9.56845 38.2596H26.0897C26.7463 38.2596 27.2789 37.7273 27.2789 37.0704C27.2789 36.4135 26.7463 35.8812 26.0897 35.8812H10.0732L7.26344 32.971C7.5307 32.4807 7.69639 31.9276 7.69639 31.331C7.69604 29.4249 6.14539 27.8746 4.23998 27.8746ZM5.31764 31.3308C5.31764 31.925 4.8345 32.4085 4.23998 32.4085C3.64529 32.4085 3.16233 31.925 3.16233 31.3308C3.16233 30.7367 3.64547 30.2532 4.23998 30.2532C4.8345 30.253 5.31764 30.7365 5.31764 31.3308ZM17.1548 24.7466L12.7468 18.4072C13.1919 17.8254 13.4673 17.1071 13.4673 16.3196C13.4673 14.4139 11.9164 12.8634 10.011 12.8634C8.10562 12.8634 6.55479 14.4139 6.55479 16.3196C6.55479 18.2254 8.10562 19.7759 10.011 19.7759C10.263 19.7759 10.5076 19.7453 10.7444 19.6939L15.5569 26.6151C15.7791 26.9344 16.1437 27.1254 16.5332 27.1254H29.6139C30.2704 27.1254 30.8031 26.5931 30.8031 25.9362C30.8031 25.2793 30.2704 24.747 29.6139 24.747H17.1548V24.7466ZM11.0889 16.3196C11.0889 16.9138 10.6057 17.3973 10.0112 17.3973C9.41651 17.3973 8.93354 16.9138 8.93354 16.3196C8.93354 15.7254 9.41668 15.242 10.0112 15.242C10.6057 15.2418 11.0889 15.7253 11.0889 16.3196ZM6.84131 72.6786C6.84131 74.5843 8.39214 76.1348 10.2975 76.1348C12.2029 76.1348 13.7538 74.5843 13.7538 72.6786C13.7538 71.7468 13.3793 70.9033 12.7775 70.2809L17.155 63.9851H29.6139C30.2704 63.9851 30.8031 63.4529 30.8031 62.7959C30.8031 62.139 30.2704 61.6067 29.6139 61.6067H16.5332C16.1437 61.6067 15.779 61.7975 15.5569 62.117L10.5956 69.2528C10.4957 69.244 10.3996 69.2225 10.2975 69.2225C8.39214 69.2223 6.84131 70.7728 6.84131 72.6786ZM9.21972 72.6786C9.21972 72.0844 9.70286 71.6009 10.2974 71.6009C10.8921 71.6009 11.375 72.0844 11.375 72.6786C11.375 73.2728 10.8919 73.7562 10.2974 73.7562C9.70286 73.7562 9.21972 73.2728 9.21972 72.6786ZM1.07027 57.9981C1.07027 59.9038 2.62109 61.4543 4.5265 61.4543C6.43191 61.4543 7.98273 59.9038 7.98273 57.9981C7.98273 57.2561 7.74279 56.5724 7.34335 56.0086L10.0732 53.1816H26.0897C26.7463 53.1816 27.2789 52.6493 27.2789 51.9924C27.2789 51.3355 26.7463 50.8032 26.0897 50.8032H9.56845C9.24567 50.8032 8.9375 50.9345 8.71286 51.1664L5.34754 54.6513C5.0832 54.5863 4.81095 54.542 4.52667 54.542C2.62109 54.5418 1.07027 56.0921 1.07027 57.9981ZM3.44867 57.9981C3.44867 57.4039 3.93182 56.9204 4.52633 56.9204C5.12084 56.9204 5.60398 57.4039 5.60398 57.9981C5.60398 58.5922 5.12084 59.0757 4.52633 59.0757C3.93182 59.0757 3.44867 58.5922 3.44867 57.9981ZM0.0405655 44.531C0.0405655 46.4367 1.59139 47.9872 3.4968 47.9872C4.98283 47.9872 6.24198 47.0391 6.72925 45.7198H32.7975V66.7425C32.7975 71.0499 36.3017 74.5546 40.6096 74.5546C43.7645 74.5546 46.541 72.7057 47.7704 69.8717C47.8199 69.8729 47.8687 69.8732 47.9175 69.8732C52.2254 69.8732 55.7296 66.3687 55.7296 62.0612C55.7296 61.8549 55.721 61.6485 55.7048 61.4429C57.5599 61.0717 59.3166 60.1171 60.7521 58.6809C62.5948 56.8386 63.609 54.3894 63.609 51.7841C63.609 49.1788 62.5948 46.7296 60.7521 44.8876C60.6141 44.7494 60.459 44.6283 60.3119 44.499C60.459 44.3696 60.6141 44.2484 60.7521 44.1104C62.5948 42.2681 63.609 39.8189 63.609 37.2139C63.609 34.6086 62.5948 32.1594 60.7521 30.3171C59.3166 28.8809 57.5599 27.9263 55.7048 27.5551C55.7211 27.3495 55.7296 27.1433 55.7296 26.9368C55.7296 22.629 52.2254 19.1244 47.9175 19.1244C47.8687 19.1244 47.8199 19.1248 47.7704 19.126C46.541 16.2923 43.7645 14.4434 40.6096 14.4434C36.3017 14.4434 32.7975 17.948 32.7975 22.2555V43.3416H6.7289C6.24147 42.0226 4.98248 41.0751 3.4968 41.0751C1.59122 41.0749 0.0405655 42.6252 0.0405655 44.531ZM59.0703 42.4286C58.7403 42.7586 58.3654 43.0482 57.9682 43.3096H35.1759V22.2551C35.1759 19.2589 37.6133 16.8217 40.6094 16.8217C42.6069 16.8217 44.3853 17.8863 45.3346 19.5624C44.3722 19.8993 43.4787 20.4242 42.7061 21.1163C42.697 21.1244 42.6939 21.1359 42.6851 21.1441C42.242 20.9372 41.7532 20.8131 41.2326 20.8131C39.3272 20.8131 37.7764 22.3636 37.7764 24.2688C37.7764 26.1746 39.3272 27.7251 41.2326 27.7251C43.138 27.7251 44.6888 26.1746 44.6888 24.2688C44.6888 23.7535 44.5678 23.2689 44.3647 22.8292C45.3511 21.9746 46.6082 21.5025 47.9175 21.5025C50.9138 21.5025 53.351 23.9402 53.351 26.9365C53.351 27.108 53.3352 27.2785 53.3192 27.4489C51.9103 27.5944 50.5623 28.0391 49.3478 28.767C48.8152 28.4311 48.1896 28.229 47.5148 28.229C45.6094 28.229 44.0586 29.7795 44.0586 31.6852C44.0586 33.5906 45.6094 35.1409 47.5148 35.1409C49.4202 35.1409 50.971 33.5905 50.971 31.6852C50.971 31.3356 50.9033 31.0046 50.8064 30.6863C51.8768 30.0966 53.0676 29.7745 54.3099 29.7705C56.0367 29.8652 57.7266 30.6543 59.0703 31.9984C60.4632 33.3916 61.2304 35.2436 61.2304 37.2136C61.2304 39.1834 60.463 41.0354 59.0703 42.4286ZM48.5926 31.6854C48.5926 32.2796 48.1095 32.7627 47.515 32.7627C46.9203 32.7627 46.4373 32.2796 46.4373 31.6854C46.4373 31.0912 46.9205 30.6077 47.515 30.6077C48.1095 30.6076 48.5926 31.0911 48.5926 31.6854ZM41.2328 25.3467C40.6381 25.3467 40.1551 24.8632 40.1551 24.269C40.1551 23.6748 40.6383 23.1917 41.2328 23.1917C41.8273 23.1917 42.3104 23.6748 42.3104 24.269C42.3104 24.8632 41.8273 25.3467 41.2328 25.3467ZM35.1759 66.7425V45.688H57.9894C58.3804 45.9467 58.7436 46.2423 59.0701 46.5691C60.463 47.9619 61.2302 49.8139 61.2302 51.7839C61.2302 53.754 60.463 55.6059 59.0701 56.9991C57.7264 58.3432 56.0365 59.1323 54.3097 59.227C53.0873 59.223 51.9131 58.913 50.8552 58.3408C50.9236 58.0701 50.9709 57.7913 50.9709 57.4996C50.9709 55.5939 49.42 54.0434 47.5146 54.0434C45.6092 54.0434 44.0584 55.5939 44.0584 57.4996C44.0584 59.4054 45.6092 60.9559 47.5146 60.9559C48.2559 60.9559 48.9396 60.7163 49.5032 60.3172C50.6775 60.992 51.9695 61.4093 53.3188 61.5488C53.3348 61.7192 53.3506 61.8897 53.3506 62.0612C53.3506 65.0575 50.9133 67.4947 47.9172 67.4947C46.635 67.4947 45.4054 67.0407 44.4286 66.2207C44.594 65.8175 44.6885 65.3779 44.6885 64.9157C44.6885 63.0099 43.1377 61.4594 41.2323 61.4594C39.3269 61.4594 37.776 63.0099 37.776 64.9157C37.776 66.8214 39.3269 68.3719 41.2323 68.3719C41.8056 68.3719 42.3384 68.2183 42.8151 67.9701C43.5629 68.6161 44.4156 69.1137 45.3342 69.435C44.385 71.1116 42.6066 72.1762 40.609 72.1762C37.6131 72.1762 35.1759 69.7388 35.1759 66.7425ZM41.2328 65.9935C40.6381 65.9935 40.1551 65.51 40.1551 64.9158C40.1551 64.3217 40.6383 63.8382 41.2328 63.8382C41.8273 63.8382 42.3104 64.3217 42.3104 64.9158C42.3104 65.51 41.8273 65.9935 41.2328 65.9935ZM47.5148 58.5774C46.9201 58.5774 46.4371 58.094 46.4371 57.4998C46.4371 56.9056 46.9203 56.4221 47.5148 56.4221C48.1095 56.4221 48.5925 56.9056 48.5925 57.4998C48.5925 57.6992 48.5344 57.8836 48.4397 58.0439C48.4201 58.0672 48.3976 58.0868 48.3795 58.1118C48.3603 58.1385 48.3479 58.1677 48.331 58.1954C48.1334 58.4271 47.8429 58.5774 47.5148 58.5774ZM2.41897 44.531C2.41897 43.9368 2.90211 43.4533 3.49663 43.4533C4.09114 43.4533 4.57428 43.9368 4.57428 44.531C4.57428 45.1251 4.09114 45.6086 3.49663 45.6086C2.90211 45.6086 2.41897 45.1251 2.41897 44.531Z" fill="black"/>
</svg>
