<svg width="213" height="44" viewBox="0 0 213 44" fill="none" xmlns="http://www.w3.org/2000/svg">
<path d="M25.3908 42.8017C24.7418 42.5308 24.1254 42.2971 23.601 41.8837C23.0523 41.4512 22.63 40.9288 22.5116 40.2239C22.2645 38.7537 23.5472 37.6547 25.0865 38.0037C25.6546 38.1325 26.1708 38.3974 26.7027 38.6207C29.3518 39.7328 31.7352 38.9017 33.183 36.4113C33.8946 35.1872 34.2216 33.8967 34.2193 32.4851C34.2058 24.1925 34.2122 15.8999 34.2119 7.60728C34.2119 7.25452 34.2119 6.90177 34.2119 6.37499C32.6764 7.96642 31.2754 9.43054 29.8604 10.881C28.7886 11.9796 27.6951 13.0569 26.6189 14.1512C26.072 14.7074 25.438 14.9605 24.6416 14.9553C20.9939 14.9315 17.3457 14.9324 13.6979 14.9544C12.9619 14.9589 12.3954 14.7128 11.893 14.1976C9.54165 11.7863 7.18076 9.38422 4.81955 6.9825C4.67115 6.83156 4.55735 6.63013 4.31581 6.56647C4.12892 6.83133 4.15573 7.13176 4.15571 7.42363C4.15512 15.8159 4.14555 24.2082 4.16416 32.6004C4.16885 34.7121 4.94132 36.5293 6.53144 37.9535C7.91764 39.195 9.52072 39.3412 11.2243 38.7784C11.8274 38.5792 12.3912 38.2615 12.9939 38.0611C13.9131 37.7553 14.7938 38.061 15.3232 38.8073C15.9008 39.6214 15.9146 40.3068 15.2809 41.1676C14.4282 42.3258 13.1491 42.7908 11.8328 43.1659C7.25523 44.4704 3.2857 41.8514 1.24483 38.103C0.400702 36.5526 0.00135701 34.8807 0.00127303 33.1146C0.000798347 23.0479 -0.00154174 12.9811 0.00164541 2.91433C0.00226964 0.949318 1.88809 -0.435479 3.75687 0.137234C4.2303 0.282327 4.6005 0.573036 4.93687 0.921872C7.91118 4.00642 10.8884 7.08817 13.8597 10.1756C14.269 10.601 14.7258 10.8093 15.3387 10.8029C17.8302 10.7769 20.323 10.7548 22.8134 10.8137C23.6824 10.8342 24.2957 10.519 24.8549 9.92896C26.6092 8.07789 28.3718 6.23475 30.132 4.38924C31.2323 3.2356 32.32 2.06947 33.4392 0.934522C34.3744 -0.0137734 35.5851 -0.241586 36.7276 0.256662C37.7634 0.708348 38.4975 1.94934 38.4962 3.14876C38.4863 12.9763 38.4723 22.8039 38.4937 32.6313C38.498 34.5674 38.1752 36.4003 37.2207 38.0892C35.3835 41.3403 32.7851 43.3996 28.866 43.4393C27.667 43.4515 26.5332 43.2738 25.3908 42.8017Z" fill="black"/>
<path d="M29.912 25.5868C30.4524 26.2876 30.8603 27.0128 31.1682 27.7974C31.5205 28.6953 31.1934 29.4975 30.7662 30.2413C29.8142 31.8986 28.5174 33.2819 27.1004 34.5461C26.3642 35.2029 25.9527 35.1389 25.2711 34.4025C24.9192 34.0224 24.5856 33.625 24.2239 33.2547C23.9096 32.9329 23.9181 32.6931 24.2507 32.3602C25.2781 31.3318 26.2505 30.2516 27.1767 29.1283C27.5579 28.666 27.542 28.3115 27.1413 27.8888C26.1684 26.8626 25.2305 25.8031 24.2497 24.7846C23.8643 24.3843 23.9052 24.1036 24.2902 23.7424C24.6955 23.3621 25.0492 22.926 25.4194 22.509C25.92 21.9454 26.3197 21.8858 26.9018 22.3816C27.9351 23.262 28.859 24.252 29.6959 25.322C29.7572 25.4004 29.8225 25.4758 29.912 25.5868Z" fill="black"/>
<path d="M11.8499 27.3035C10.7757 28.4857 10.7701 28.4908 11.8134 29.6357C12.6179 30.5185 13.421 31.4039 14.2604 32.2529C14.6256 32.6223 14.6263 32.9063 14.2792 33.2572C13.8174 33.724 13.3732 34.2081 12.9157 34.6794C12.5758 35.0296 12.2048 35.0681 11.79 34.7925C11.3042 34.4697 10.8953 34.062 10.5026 33.6409C9.34835 32.4028 8.19965 31.1647 7.50157 29.58C7.18085 28.8519 7.15792 28.1751 7.48761 27.4599C8.44307 25.3872 9.94706 23.76 11.655 22.2972C12.1009 21.9153 12.5232 21.9801 12.917 22.3923C13.3982 22.8961 13.8734 23.406 14.3693 23.8949C14.6584 24.1801 14.6529 24.3949 14.3612 24.6885C13.5192 25.5354 12.7044 26.4094 11.8499 27.3035Z" fill="black"/>
<path d="M61.5184 17.6233C61.535 16.1224 61.5154 14.7931 61.5721 13.4671C61.6598 11.4169 62.5338 10.4304 64.5165 10.3471C66.7061 10.2551 68.9123 10.1902 71.0941 10.3497C76.4229 10.7391 81.0922 15.4427 81.5218 20.5197C82.093 27.2703 78.1254 31.5139 72.6721 32.6524C69.8604 33.2395 67.0364 32.9913 64.2209 32.9388C62.536 32.9073 61.5136 31.5911 61.504 29.7475C61.4834 25.7639 61.5095 21.7801 61.5184 17.6233ZM69.6823 27.5586C74.5157 27.0126 77.055 23.0089 74.9776 19.0629C73.6877 16.6127 71.508 15.7276 68.7671 15.9241C67.657 16.0036 67.2483 16.3682 67.2672 17.4752C67.3123 20.1212 67.3526 22.772 67.2377 25.4141C67.1661 27.0627 67.7143 27.8027 69.6823 27.5586Z" fill="black"/>
<path d="M93.4644 26.2699C93.4599 27.5989 93.5025 28.7578 93.44 29.9111C93.343 31.7023 92.3028 32.8275 90.7201 32.9589C89.0272 33.0995 87.8159 32.1348 87.4899 30.2683C87.3521 29.4794 87.3842 28.6565 87.3826 27.849C87.374 23.5122 87.3788 19.1754 87.3802 14.8387C87.3803 14.434 87.3656 14.0274 87.3974 13.6248C87.55 11.6968 88.7501 10.3026 90.2825 10.2539C91.8282 10.2048 93.284 11.6233 93.3896 13.6106C93.5304 16.2634 93.4608 18.9277 93.4726 21.5871C93.4792 23.0904 93.4677 24.5939 93.4644 26.2699Z" fill="black"/>
<path d="M113.564 16.4229C110.483 14.8461 106.402 17.0117 105.592 19.671C104.621 22.8571 106.121 26.1578 109.356 27.3959C110.622 27.8804 111.847 27.7787 113.049 27.2162C113.635 26.9421 113.92 26.4732 113.806 25.8116C113.683 25.1019 113.118 25.1454 112.599 25.1183C112.253 25.1003 111.899 25.129 111.563 25.063C110.369 24.8289 109.492 24.1784 109.454 22.8977C109.416 21.5578 110.239 20.6121 111.506 20.5098C113.513 20.3478 115.549 20.3713 117.561 20.5053C118.772 20.586 119.547 21.4165 119.563 22.7193C119.588 24.7407 119.588 26.7629 119.568 28.7844C119.558 29.7993 118.997 30.558 118.176 31.0531C113.969 33.5917 109.543 34.0881 105.173 31.7226C101.074 29.5033 98.9986 25.816 99.311 21.1355C99.6265 16.4102 102.142 12.9729 106.535 11.1921C109.819 9.86057 113.209 9.864 116.379 11.7232C118.408 12.9135 118.926 14.2073 118.203 15.6325C117.581 16.8572 115.411 17.8378 113.564 16.4229Z" fill="black"/>
<path d="M126.391 10.9934C129.155 9.33302 131.434 10.5556 131.542 13.7456C131.649 16.921 131.544 20.1039 131.525 23.2834C131.513 25.3645 131.558 27.449 131.453 29.5258C131.341 31.7462 130.294 32.8386 128.477 32.8627C126.711 32.8861 125.415 31.7396 125.396 29.6174C125.344 24.0145 125.469 18.4098 125.542 12.8061C125.55 12.1537 125.849 11.5795 126.391 10.9934Z" fill="black"/>
<path d="M148.424 27.3186C149.787 27.396 150.801 26.9317 151.762 26.2076C153.242 25.0917 154.29 25.3662 155.65 27.135C156.718 28.5251 156.601 29.5923 155.253 30.7386C151.976 33.5242 146.918 33.8701 143.088 31.5705C138.757 28.9703 136.74 24.5996 137.575 19.6209C138.35 14.9974 141.793 11.3536 146.381 10.4739C149.412 9.89272 152.27 10.4261 154.701 12.438C155.76 13.3144 156.635 14.3649 155.666 15.8667C154.646 17.4479 153.357 17.8222 151.689 16.8558C149.449 15.5576 147.25 15.7788 145.386 17.3188C143.588 18.8044 142.928 20.9256 143.627 23.2696C144.315 25.5817 145.832 27.0018 148.424 27.3186Z" fill="black"/>
<path d="M175.732 29.1916C173.842 29.1923 172.109 29.2265 170.378 29.1822C169.26 29.1536 168.512 29.4927 168.165 30.6486C167.891 31.561 167.247 32.2503 166.371 32.6638C165.254 33.1901 164.13 33.2729 163.118 32.4476C162.077 31.5982 161.941 30.4653 162.47 29.3143C164.013 25.9609 165.613 22.6343 167.192 19.2977C168.278 17.0025 169.405 14.7257 170.436 12.4063C171.005 11.1267 171.82 10.2885 173.272 10.2538C174.875 10.2155 175.856 11.1557 176.471 12.4919C178.52 16.9464 180.53 21.4191 182.548 25.8878C183.07 27.0445 183.604 28.198 184.065 29.3794C184.551 30.6251 184.456 31.8693 183.247 32.6061C182.029 33.3483 180.685 33.3054 179.572 32.2835C179.072 31.8244 178.604 31.2571 178.325 30.6459C177.825 29.5521 177.097 29.0171 175.732 29.1916ZM174.392 22.0226C174.015 21.5042 173.983 20.7112 173.088 20.4504C172.604 21.3856 171.874 22.1804 171.738 23.2923C172.553 23.6171 173.297 23.4827 174.028 23.4674C175.158 23.4436 174.839 22.8328 174.392 22.0226Z" fill="black"/>
<path d="M203.584 16.7767C203.648 21.1731 203.753 25.442 203.788 29.7113C203.808 32.0695 202.359 33.3496 200.198 33.0138C198.725 32.785 197.802 31.5389 197.786 29.5014C197.758 25.8651 197.804 22.2281 197.836 18.5915C197.86 15.9328 197.872 15.9454 195.192 15.8671C194.328 15.8419 193.463 15.7669 192.606 15.6534C191.157 15.4613 190.292 14.5666 190.154 13.1563C190.007 11.6506 190.961 10.8317 192.306 10.4282C192.687 10.3138 193.101 10.259 193.5 10.2589C198.291 10.2579 203.083 10.2303 207.874 10.2998C210.422 10.3368 211.757 12.3562 210.665 14.3406C210.181 15.219 209.476 15.7103 208.428 15.6842C207.274 15.6554 206.119 15.6884 204.964 15.6825C204.27 15.679 203.684 15.8055 203.584 16.7767Z" fill="black"/>
</svg>
