<svg width="100" height="100" viewBox="0 0 100 100" fill="none" xmlns="http://www.w3.org/2000/svg">
<path d="M90 74.205H10C9.57568 74.205 9.16871 74.0364 8.86865 73.7364C8.5686 73.4363 8.40002 73.0293 8.40002 72.605V15.945C8.40002 15.5207 8.5686 15.1137 8.86865 14.8136C9.16871 14.5136 9.57568 14.345 10 14.345H90C90.4244 14.345 90.8313 14.5136 91.1314 14.8136C91.4314 15.1137 91.6 15.5207 91.6 15.945V72.605C91.6 73.0293 91.4314 73.4363 91.1314 73.7364C90.8313 74.0364 90.4244 74.205 90 74.205ZM11.6 71.005H88.4V17.545H11.6V71.005ZM67.624 85.655H32.376C31.9517 85.655 31.5447 85.4864 31.2447 85.1864C30.9446 84.8863 30.776 84.4793 30.776 84.055C30.776 83.6307 30.9446 83.2237 31.2447 82.9236C31.5447 82.6236 31.9517 82.455 32.376 82.455H67.624C68.0484 82.455 68.4553 82.6236 68.7554 82.9236C69.0555 83.2237 69.224 83.6307 69.224 84.055C69.224 84.4793 69.0555 84.8863 68.7554 85.1864C68.4553 85.4864 68.0484 85.655 67.624 85.655Z" fill="black"/>
<path d="M41.543 85.655C41.1187 85.655 40.7117 85.4864 40.4117 85.1864C40.1116 84.8863 39.943 84.4793 39.943 84.055V72.678C39.943 72.2537 40.1116 71.8467 40.4117 71.5466C40.7117 71.2466 41.1187 71.078 41.543 71.078C41.9674 71.078 42.3743 71.2466 42.6744 71.5466C42.9745 71.8467 43.143 72.2537 43.143 72.678V84.055C43.143 84.4793 42.9745 84.8863 42.6744 85.1864C42.3743 85.4864 41.9674 85.655 41.543 85.655ZM58.457 85.655C58.0327 85.655 57.6257 85.4864 57.3256 85.1864C57.0256 84.8863 56.857 84.4793 56.857 84.055V72.678C56.857 72.2537 57.0256 71.8467 57.3256 71.5466C57.6257 71.2466 58.0327 71.078 58.457 71.078C58.8814 71.078 59.2883 71.2466 59.5884 71.5466C59.8885 71.8467 60.057 72.2537 60.057 72.678V84.055C60.057 84.4793 59.8885 84.8863 59.5884 85.1864C59.2883 85.4864 58.8814 85.655 58.457 85.655ZM90 32.26H10C9.57568 32.26 9.16871 32.0914 8.86865 31.7914C8.5686 31.4913 8.40002 31.0843 8.40002 30.66C8.40002 30.2357 8.5686 29.8287 8.86865 29.5286C9.16871 29.2286 9.57568 29.06 10 29.06H90C90.4244 29.06 90.8313 29.2286 91.1314 29.5286C91.4314 29.8287 91.6 30.2357 91.6 30.66C91.6 31.0843 91.4314 31.4913 91.1314 31.7914C90.8313 32.0914 90.4244 32.26 90 32.26ZM72.241 24.9H67.624C67.1997 24.9 66.7927 24.7314 66.4926 24.4314C66.1926 24.1313 66.024 23.7243 66.024 23.3C66.024 22.8757 66.1926 22.4687 66.4926 22.1686C66.7927 21.8686 67.1997 21.7 67.624 21.7H72.241C72.6654 21.7 73.0723 21.8686 73.3724 22.1686C73.6724 22.4687 73.841 22.8757 73.841 23.3C73.841 23.7243 73.6724 24.1313 73.3724 24.4314C73.0723 24.7314 72.6654 24.9 72.241 24.9ZM83.658 24.9H79.04C78.6157 24.9 78.2087 24.7314 77.9087 24.4314C77.6086 24.1313 77.44 23.7243 77.44 23.3C77.44 22.8757 77.6086 22.4687 77.9087 22.1686C78.2087 21.8686 78.6157 21.7 79.04 21.7H83.658C84.0824 21.7 84.4893 21.8686 84.7894 22.1686C85.0895 22.4687 85.258 22.8757 85.258 23.3C85.258 23.7243 85.0895 24.1313 84.7894 24.4314C84.4893 24.7314 84.0824 24.9 83.658 24.9ZM50.027 68C49.7845 67.9995 49.5451 67.9441 49.327 67.838L36.746 61.683C36.4763 61.5518 36.2489 61.3474 36.0898 61.0931C35.9306 60.8388 35.8462 60.545 35.846 60.245V43.019C35.8463 42.7479 35.9155 42.4813 36.0471 42.2442C36.1787 42.0072 36.3683 41.8075 36.5982 41.6638C36.8282 41.5202 37.0908 41.4373 37.3616 41.423C37.6323 41.4087 37.9022 41.4634 38.146 41.582L50.027 47.39L61.9 41.582C62.1438 41.4634 62.4137 41.4087 62.6845 41.423C62.9552 41.4373 63.2179 41.5202 63.4478 41.6638C63.6777 41.8075 63.8674 42.0072 63.999 42.2442C64.1305 42.4813 64.1997 42.7479 64.2 43.019V60.245C64.1999 60.545 64.1154 60.8388 63.9563 61.0931C63.7972 61.3474 63.5697 61.5518 63.3 61.683L50.73 67.835C50.5113 67.9428 50.2709 67.9993 50.027 68ZM39.05 59.247L50.027 64.616L61.005 59.247V45.583L50.73 50.608C50.5111 50.7151 50.2707 50.7707 50.027 50.7707C49.7834 50.7707 49.5429 50.7151 49.324 50.608L39.05 45.583V59.247Z" fill="black"/>
<path d="M62.549 44.619C62.3063 44.6187 62.0669 44.563 61.849 44.456L49.973 38.648L38.1 44.456C37.72 44.6335 37.2856 44.6548 36.8901 44.5151C36.4947 44.3755 36.1698 44.0862 35.9855 43.7095C35.8012 43.3328 35.7722 42.8988 35.9047 42.5009C36.0372 42.103 36.3206 41.773 36.694 41.582L49.27 35.43C49.4889 35.3229 49.7293 35.2673 49.973 35.2673C50.2167 35.2673 50.4571 35.3229 50.676 35.43L63.254 41.582C63.5785 41.7409 63.8396 42.0049 63.995 42.331C64.1503 42.6572 64.1907 43.0263 64.1095 43.3784C64.0284 43.7304 63.8305 44.0446 63.5481 44.2699C63.2656 44.4952 62.9153 44.6182 62.554 44.619H62.549ZM50.027 68C49.6027 68 49.1957 67.8314 48.8956 67.5314C48.5956 67.2313 48.427 66.8244 48.427 66.4V49.171C48.427 48.7467 48.5956 48.3397 48.8956 48.0396C49.1957 47.7396 49.6027 47.571 50.027 47.571C50.4513 47.571 50.8583 47.7396 51.1584 48.0396C51.4584 48.3397 51.627 48.7467 51.627 49.171V66.4C51.627 66.8244 51.4584 67.2313 51.1584 67.5314C50.8583 67.8314 50.4513 68 50.027 68Z" fill="black"/>
</svg>
